<svg width="900" height="620" viewBox="0 0 900 620" fill="none" xmlns="http://www.w3.org/2000/svg">
  <rect width="900" height="620" fill="#EEF3F6"/>
  <rect width="900" height="620" fill="url(#paint0_linear_eur)"/>
  <rect x="152" y="180" width="570" height="214" rx="10" fill="#212225"/>
  <rect x="188" y="214" width="500" height="148" fill="url(#paint1_linear_eur)"/>
  <path d="M354 214V362" stroke="#202124" stroke-width="8"/>
  <path d="M510 214V362" stroke="#202124" stroke-width="8"/>
  <rect x="598" y="148" width="136" height="246" rx="8" fill="#2A2C30"/>
  <rect x="626" y="176" width="80" height="188" fill="#B8CBD8"/>
  <rect x="0" y="432" width="900" height="188" fill="#E3DDD2"/>
  <path d="M0 470L180 448L372 474L620 442L900 480V620H0V470Z" fill="#B6C4CE"/>
  <rect x="142" y="120" width="218" height="22" rx="11" fill="#C8A96E"/>
  <defs>
    <linearGradient id="paint0_linear_eur" x1="450" y1="0" x2="450" y2="620" gradientUnits="userSpaceOnUse">
      <stop stop-color="#FAF7F2"/>
      <stop offset="0.52" stop-color="#E1E9EF"/>
      <stop offset="1" stop-color="#B4C3CD"/>
    </linearGradient>
    <linearGradient id="paint1_linear_eur" x1="438" y1="214" x2="438" y2="362" gradientUnits="userSpaceOnUse">
      <stop stop-color="#EFF4F7"/>
      <stop offset="1" stop-color="#9AB0BE"/>
    </linearGradient>
  </defs>
</svg>
