<svg width="1600" height="1100" viewBox="0 0 1600 1100" fill="none" xmlns="http://www.w3.org/2000/svg">
  <rect width="1600" height="1100" fill="#18181A"/>
  <rect width="1600" height="1100" fill="url(#paint0_linear_hero)"/>
  <circle cx="1170" cy="220" r="148" fill="#E9CFA5" fill-opacity="0.88"/>
  <rect y="712" width="1600" height="388" fill="url(#paint1_linear_hero)"/>
  <rect x="688" y="286" width="686" height="452" rx="12" fill="#212225"/>
  <rect x="642" y="330" width="86" height="408" fill="#202124"/>
  <rect x="1244" y="330" width="86" height="408" fill="#202124"/>
  <rect x="772" y="366" width="472" height="294" fill="url(#paint2_linear_hero)"/>
  <rect x="796" y="390" width="162" height="246" fill="#A9C0D0" fill-opacity="0.54"/>
  <rect x="976" y="390" width="246" height="246" fill="#D5E0E7" fill-opacity="0.82"/>
  <rect x="822" y="438" width="110" height="150" fill="#1F2023" fill-opacity="0.16"/>
  <rect x="72" y="374" width="516" height="286" rx="6" fill="#26272B"/>
  <rect x="120" y="410" width="152" height="224" fill="#1C1D21"/>
  <rect x="292" y="410" width="118" height="224" fill="#334553"/>
  <rect x="430" y="410" width="118" height="224" fill="#BFD0DB"/>
  <rect x="0" y="660" width="1600" height="18" fill="#303135"/>
  <path d="M0 772L258 716L476 736L714 694L1038 758L1346 706L1600 752V1100H0V772Z" fill="#202124"/>
  <path d="M0 808L238 748L476 770L752 722L1038 790L1348 742L1600 790V1100H0V808Z" fill="#28292D"/>
  <rect x="846" y="674" width="116" height="64" fill="#111214"/>
  <rect x="990" y="674" width="154" height="64" fill="#111214"/>
  <defs>
    <linearGradient id="paint0_linear_hero" x1="800" y1="0" x2="800" y2="1100" gradientUnits="userSpaceOnUse">
      <stop stop-color="#C69357"/>
      <stop offset="0.34" stop-color="#F5F0E8"/>
      <stop offset="0.64" stop-color="#B7C7D3"/>
      <stop offset="1" stop-color="#5A6770"/>
    </linearGradient>
    <linearGradient id="paint1_linear_hero" x1="800" y1="712" x2="800" y2="1100" gradientUnits="userSpaceOnUse">
      <stop stop-color="#D7D0C6" stop-opacity="0"/>
      <stop offset="1" stop-color="#141416" stop-opacity="0.86"/>
    </linearGradient>
    <linearGradient id="paint2_linear_hero" x1="1008" y1="366" x2="1008" y2="660" gradientUnits="userSpaceOnUse">
      <stop stop-color="#EDE8DE"/>
      <stop offset="0.48" stop-color="#D7E0E6"/>
      <stop offset="1" stop-color="#8FA5B3"/>
    </linearGradient>
  </defs>
</svg>
